<svg width="26" height="26" viewBox="0 0 26 26" fill="none" xmlns="http://www.w3.org/2000/svg">
<path d="M20.2226 11.9855L8.65226 0.415362C8.38465 0.147544 8.02742 0 7.64651 0C7.26561 0 6.90837 0.147544 6.64077 0.415362L5.78869 1.26723C5.23424 1.82231 5.23424 2.72448 5.78869 3.27872L15.5046 12.9946L5.77791 22.7213C5.5103 22.9891 5.36255 23.3461 5.36255 23.7268C5.36255 24.1079 5.5103 24.465 5.77791 24.733L6.62999 25.5846C6.8978 25.8525 7.25483 26 7.63573 26C8.01664 26 8.37387 25.8525 8.64148 25.5846L20.2226 14.004C20.4908 13.7353 20.6382 13.3766 20.6373 12.9952C20.6382 12.6124 20.4908 12.2539 20.2226 11.9855Z" fill="#DCF1F5"/>
</svg>
