<svg width="26" height="26" viewBox="0 0 26 26" fill="none" xmlns="http://www.w3.org/2000/svg">
<path d="M14.0145 20.2226L25.5846 8.65226C25.8525 8.38465 26 8.02742 26 7.64651C26 7.26561 25.8525 6.90837 25.5846 6.64077L24.7328 5.78869C24.1777 5.23424 23.2755 5.23424 22.7213 5.78869L13.0054 15.5046L3.27872 5.77791C3.0109 5.5103 2.65388 5.36255 2.27318 5.36255C1.89207 5.36255 1.53504 5.5103 1.26701 5.77791L0.415361 6.62999C0.147543 6.8978 2.25652e-08 7.25483 2.71075e-08 7.63573C3.16497e-08 8.01664 0.147543 8.37387 0.415361 8.64148L11.996 20.2226C12.2647 20.4908 12.6234 20.6382 13.0048 20.6373C13.3876 20.6382 13.7461 20.4908 14.0145 20.2226Z" fill="#DCF1F5"/>
</svg>
