<svg width="50" height="50" viewBox="0 0 50 50" fill="none" xmlns="http://www.w3.org/2000/svg">
<circle cx="25" cy="25" r="25" fill="#DCF1F5"/>
<g clip-path="url(#clip0_214_671)">
<path d="M25 26.0909C28.615 26.0909 31.5455 23.1604 31.5455 19.5455C31.5455 15.9305 28.615 13 25 13C21.3851 13 18.4546 15.9305 18.4546 19.5455C18.4546 23.1604 21.3851 26.0909 25 26.0909Z" fill="#28A6C3"/>
<path d="M34.3153 29.6417C33.2841 29.1127 31.6413 28.3707 29.6769 27.8407C29.4042 27.764 29.1165 27.9158 29.0217 28.1832L26.7859 34.4205L26.109 31.0351L27.1541 27.8998C27.2095 27.7336 27.1819 27.5504 27.0785 27.4081C26.9762 27.2659 26.8122 27.1818 26.6364 27.1818H23.3637C23.1879 27.1818 23.0238 27.2659 22.9215 27.4081C22.8182 27.5504 22.7905 27.7336 22.8459 27.8998L23.891 31.0351L23.2141 34.4205L20.9784 28.1832C20.8836 27.9158 20.5949 27.7645 20.3232 27.8407C18.3587 28.3707 16.7159 29.1127 15.6847 29.6417C14.0291 30.4918 13 32.1697 13 34.0197V34.8182C13 36.0215 13.9791 37 15.1818 37H23.3637H26.6364H34.8182C36.021 37 37.0001 36.0215 37.0001 34.8182V34.0197C37 32.1697 35.9709 30.4918 34.3153 29.6417Z" fill="#28A6C3"/>
</g>
<defs>
<clipPath id="clip0_214_671">
<rect width="24" height="24" fill="white" transform="translate(13 13)"/>
</clipPath>
</defs>
</svg>
