<svg width="50" height="50" viewBox="0 0 50 50" fill="none" xmlns="http://www.w3.org/2000/svg">
<circle cx="25" cy="25" r="25" fill="#28A6C3"/>
<g clip-path="url(#clip0_356_246)">
<path fill-rule="evenodd" clip-rule="evenodd" d="M32.0386 35.3427H17.9613C16.1335 35.3427 14.6396 33.8488 14.6396 32.0211V17.9438C14.6396 16.116 16.1335 14.6397 17.9613 14.6397H32.0386C33.8664 14.6397 35.3426 16.116 35.3426 17.9438V32.0211C35.3426 33.8488 33.8664 35.3427 32.0386 35.3427ZM18.2952 28.4007C18.014 28.4007 17.7679 28.6292 17.7679 28.9279C17.7679 29.2267 18.014 29.4552 18.2952 29.4552C18.594 29.4552 18.84 29.2267 18.84 28.9279C18.84 28.6292 18.594 28.4007 18.2952 28.4007ZM31.9156 24.7627C31.6344 24.7627 31.3883 25.0088 31.3883 25.3075C31.3883 25.6063 31.6344 25.8348 31.9156 25.8348C32.2143 25.8348 32.4604 25.6063 32.4604 25.3075C32.4604 25.0088 32.2143 24.7627 31.9156 24.7627ZM28.8224 29.3497H27.5395V30.7381H31.3883V26.8014C30.7732 26.5905 30.3338 25.993 30.3338 25.3075C30.3338 24.4288 31.0368 23.7083 31.9156 23.7083C32.7943 23.7083 33.5149 24.4288 33.5149 25.3075C33.5149 25.993 33.0579 26.5905 32.4428 26.8014V31.2654C32.4428 31.5641 32.2143 31.7926 31.9156 31.7926H27.0122C26.731 31.7926 26.485 31.5641 26.485 31.2654V29.3497H24.9033V30.9842C24.9033 31.2654 24.6748 31.5114 24.376 31.5114H23.0404V32.3374C23.0404 32.6186 22.8119 32.8647 22.5131 32.8647H18.2952C18.014 32.8647 17.7679 32.6186 17.7679 32.3374V30.4218C17.1528 30.2109 16.7135 29.6133 16.7135 28.9279C16.7135 28.0492 17.434 27.3462 18.2952 27.3462C19.1739 27.3462 19.8945 28.0492 19.8945 28.9279C19.8945 29.6133 19.4551 30.2109 18.8224 30.4218V31.8102H21.9859V30.9842C21.9859 30.6854 22.2143 30.4569 22.5131 30.4569H23.8488V29.3497H21.1774C20.8787 29.3497 20.6502 29.1037 20.6502 28.8225V21.1599C20.6502 20.8787 20.8787 20.6327 21.1774 20.6327H22.4428V19.2267H18.594V23.181C19.2091 23.3919 19.666 23.9894 19.666 24.6749C19.666 25.5536 18.9454 26.2566 18.0667 26.2566C17.188 26.2566 16.485 25.5536 16.485 24.6749C16.485 23.9894 16.9244 23.3919 17.5395 23.181V18.6995C17.5395 18.4183 17.7855 18.1722 18.0667 18.1722H22.9701C23.2688 18.1722 23.4973 18.4183 23.4973 18.6995V20.6327H25.1142V18.9982C25.1142 18.717 25.3426 18.471 25.6414 18.471H26.9771V17.645C26.9771 17.3638 27.2056 17.1177 27.5043 17.1177H31.7047C32.0034 17.1177 32.2319 17.3638 32.2319 17.645V19.5606C32.8646 19.7715 33.304 20.3691 33.304 21.0545C33.304 21.9332 32.5834 22.6362 31.7047 22.6362C30.8435 22.6362 30.123 21.9332 30.123 21.0545C30.123 20.3691 30.5623 19.7715 31.1774 19.5606V18.1722H28.0316V18.9982C28.0316 19.297 27.7855 19.5255 27.5043 19.5255H26.1686V20.6327H28.8224C29.1212 20.6327 29.3497 20.8787 29.3497 21.1599V28.8225C29.3497 29.1037 29.1212 29.3497 28.8224 29.3497ZM31.7222 20.5097H31.7047C31.4059 20.5272 31.1774 20.7557 31.1774 21.0545C31.1774 21.3532 31.4235 21.5817 31.7047 21.5817C32.0034 21.5817 32.2495 21.3532 32.2495 21.0545C32.2495 20.7557 32.0034 20.5272 31.7222 20.5097ZM18.0843 24.1476H18.0667C17.7679 24.1476 17.5395 24.3761 17.5395 24.6749C17.5395 24.9736 17.7679 25.2021 18.0667 25.2021C18.3655 25.2021 18.6115 24.9736 18.6115 24.6749C18.6115 24.3761 18.3655 24.1476 18.0843 24.1476ZM21.7047 28.2952H24.3585H24.376H24.3936H27.0122H28.2952V21.6872H25.6414H22.9701H21.7047V28.2952Z" fill="#F5F5F7"/>
<path fill-rule="evenodd" clip-rule="evenodd" d="M19.8241 15.6942C19.5253 15.6942 19.2969 15.4482 19.2969 15.167V10.5448C19.2969 10.246 19.5253 10.0176 19.8241 10.0176C20.1053 10.0176 20.3514 10.246 20.3514 10.5448V15.167C20.3514 15.4482 20.1053 15.6942 19.8241 15.6942Z" fill="#F5F5F7"/>
<path fill-rule="evenodd" clip-rule="evenodd" d="M23.2689 15.6942C22.9877 15.6942 22.7417 15.4482 22.7417 15.167V10.5448C22.7417 10.246 22.9877 10.0176 23.2689 10.0176C23.5677 10.0176 23.7962 10.246 23.7962 10.5448V15.167C23.7962 15.4482 23.5677 15.6942 23.2689 15.6942Z" fill="#F5F5F7"/>
<path fill-rule="evenodd" clip-rule="evenodd" d="M26.7138 15.6942C26.4326 15.6942 26.1865 15.4482 26.1865 15.167V10.5448C26.1865 10.246 26.4326 10.0176 26.7138 10.0176C27.0125 10.0176 27.241 10.246 27.241 10.5448V15.167C27.241 15.4482 27.0125 15.6942 26.7138 15.6942Z" fill="#F5F5F7"/>
<path fill-rule="evenodd" clip-rule="evenodd" d="M30.1757 15.6942C29.8769 15.6942 29.6484 15.4482 29.6484 15.167V10.5448C29.6484 10.246 29.8769 10.0176 30.1757 10.0176C30.4569 10.0176 30.7029 10.246 30.7029 10.5448V15.167C30.7029 15.4482 30.4569 15.6942 30.1757 15.6942Z" fill="#F5F5F7"/>
<path fill-rule="evenodd" clip-rule="evenodd" d="M19.8241 39.9824C19.5253 39.9824 19.2969 39.7539 19.2969 39.4552V34.8154C19.2969 34.5167 19.5253 34.2882 19.8241 34.2882C20.1053 34.2882 20.3514 34.5167 20.3514 34.8154V39.4552C20.3514 39.7539 20.1053 39.9824 19.8241 39.9824Z" fill="#F5F5F7"/>
<path fill-rule="evenodd" clip-rule="evenodd" d="M23.2689 39.9824C22.9877 39.9824 22.7417 39.7539 22.7417 39.4552V34.8154C22.7417 34.5167 22.9877 34.2882 23.2689 34.2882C23.5677 34.2882 23.7962 34.5167 23.7962 34.8154V39.4552C23.7962 39.7539 23.5677 39.9824 23.2689 39.9824Z" fill="#F5F5F7"/>
<path fill-rule="evenodd" clip-rule="evenodd" d="M26.7138 39.9824C26.4326 39.9824 26.1865 39.7539 26.1865 39.4552V34.8154C26.1865 34.5167 26.4326 34.2882 26.7138 34.2882C27.0125 34.2882 27.241 34.5167 27.241 34.8154V39.4552C27.241 39.7539 27.0125 39.9824 26.7138 39.9824Z" fill="#F5F5F7"/>
<path fill-rule="evenodd" clip-rule="evenodd" d="M30.1757 39.9824C29.8769 39.9824 29.6484 39.7539 29.6484 39.4552V34.8154C29.6484 34.5167 29.8769 34.2882 30.1757 34.2882C30.4569 34.2882 30.7029 34.5167 30.7029 34.8154V39.4552C30.7029 39.7539 30.4569 39.9824 30.1757 39.9824Z" fill="#F5F5F7"/>
<path fill-rule="evenodd" clip-rule="evenodd" d="M39.4726 30.6854H34.8153C34.5341 30.6854 34.2881 30.4569 34.2881 30.1582C34.2881 29.877 34.5341 29.6309 34.8153 29.6309H39.4726C39.7538 29.6309 39.9999 29.877 39.9999 30.1582C39.9999 30.4569 39.7538 30.6854 39.4726 30.6854Z" fill="#F5F5F7"/>
<path fill-rule="evenodd" clip-rule="evenodd" d="M39.4726 27.2408H34.8153C34.5341 27.2408 34.2881 27.0123 34.2881 26.7135C34.2881 26.4148 34.5341 26.1863 34.8153 26.1863H39.4726C39.7538 26.1863 39.9999 26.4148 39.9999 26.7135C39.9999 27.0123 39.7538 27.2408 39.4726 27.2408Z" fill="#F5F5F7"/>
<path fill-rule="evenodd" clip-rule="evenodd" d="M39.4726 23.7961H34.8153C34.5341 23.7961 34.2881 23.5501 34.2881 23.2689C34.2881 22.9701 34.5341 22.7416 34.8153 22.7416H39.4726C39.7538 22.7416 39.9999 22.9701 39.9999 23.2689C39.9999 23.5501 39.7538 23.7961 39.4726 23.7961Z" fill="#F5F5F7"/>
<path fill-rule="evenodd" clip-rule="evenodd" d="M39.4726 20.3339H34.8153C34.5341 20.3339 34.2881 20.1054 34.2881 19.8067C34.2881 19.5255 34.5341 19.2794 34.8153 19.2794H39.4726C39.7538 19.2794 39.9999 19.5255 39.9999 19.8067C39.9999 20.1054 39.7538 20.3339 39.4726 20.3339Z" fill="#F5F5F7"/>
<path fill-rule="evenodd" clip-rule="evenodd" d="M15.167 30.6854H10.5272C10.246 30.6854 10 30.4569 10 30.1582C10 29.877 10.246 29.6309 10.5272 29.6309H15.167C15.4657 29.6309 15.6942 29.877 15.6942 30.1582C15.6942 30.4569 15.4657 30.6854 15.167 30.6854Z" fill="#F5F5F7"/>
<path fill-rule="evenodd" clip-rule="evenodd" d="M15.167 27.2408H10.5272C10.246 27.2408 10 27.0123 10 26.7135C10 26.4148 10.246 26.1863 10.5272 26.1863H15.167C15.4657 26.1863 15.6942 26.4148 15.6942 26.7135C15.6942 27.0123 15.4657 27.2408 15.167 27.2408Z" fill="#F5F5F7"/>
<path fill-rule="evenodd" clip-rule="evenodd" d="M15.167 23.7961H10.5272C10.246 23.7961 10 23.5501 10 23.2689C10 22.9701 10.246 22.7416 10.5272 22.7416H15.167C15.4657 22.7416 15.6942 22.9701 15.6942 23.2689C15.6942 23.5501 15.4657 23.7961 15.167 23.7961Z" fill="#F5F5F7"/>
<path fill-rule="evenodd" clip-rule="evenodd" d="M15.167 20.3339H10.5272C10.246 20.3339 10 20.1054 10 19.8067C10 19.5255 10.246 19.2794 10.5272 19.2794H15.167C15.4657 19.2794 15.6942 19.5255 15.6942 19.8067C15.6942 20.1054 15.4657 20.3339 15.167 20.3339Z" fill="#F5F5F7"/>
</g>
<defs>
<clipPath id="clip0_356_246">
<rect width="30" height="30" fill="white" transform="translate(10 10)"/>
</clipPath>
</defs>
</svg>
