<svg width="50" height="50" viewBox="0 0 50 50" fill="none" xmlns="http://www.w3.org/2000/svg">
<circle cx="25" cy="25" r="25" fill="#28A6C3"/>
<g clip-path="url(#clip0_356_259)">
<path d="M27.2845 17.5663C26.822 17.2372 26.1801 17.5785 26.1801 18.1461V20.0665H23.8194V18.1467C23.8194 17.5741 23.1716 17.2394 22.706 17.5727C21.6862 18.3026 21.0288 19.5063 21.0555 20.8621C21.0848 22.3519 21.9532 23.6427 23.1999 24.2882V31.009C23.1999 32.003 24.0057 32.8089 24.9998 32.8089C25.9938 32.8089 26.7996 32.003 26.7996 31.009V24.2929C28.0731 23.6386 28.9448 22.3128 28.9448 20.7827C28.9448 19.4554 28.2893 18.2814 27.2845 17.5663Z" fill="#F5F5F7"/>
<path d="M36.7578 21.4207C36.5758 15.0922 31.3715 10 24.9997 10C18.628 10 13.4237 15.0922 13.2417 21.4207C11.8105 21.8063 10.7539 23.1149 10.7539 24.6663V28.1758C10.7539 30.0293 12.2618 31.5372 14.1153 31.5372C15.9688 31.5372 17.4767 30.0293 17.4767 28.1758V24.6663C17.4767 23.1191 16.4258 21.8136 15.0006 21.424C15.1803 16.0635 19.5963 11.7578 24.9997 11.7578C30.4032 11.7578 34.8193 16.0635 34.9989 21.424C33.5737 21.8136 32.5228 23.1191 32.5228 24.6663V28.1758C32.5228 29.7099 33.5564 31.0064 34.9634 31.4079C34.5935 34.9531 31.7872 37.7845 28.253 38.1918V36.1957C28.253 35.7104 27.8595 35.3168 27.3741 35.3168H24.437C24.2756 35.3168 24.1179 35.3332 23.9656 35.3645C22.9377 35.5754 22.1531 36.4621 22.0984 37.5381C22.0963 37.578 22.0953 37.6181 22.0953 37.6584C22.0953 38.9496 23.1458 40 24.437 40H27.3732C32.2745 40 36.31 36.2252 36.7269 31.4301C38.1739 31.0552 39.2456 29.7383 39.2456 28.1758V24.6663C39.2456 23.1149 38.189 21.8063 36.7578 21.4207Z" fill="#F5F5F7"/>
</g>
<defs>
<clipPath id="clip0_356_259">
<rect width="30" height="30" fill="white" transform="translate(10 10)"/>
</clipPath>
</defs>
</svg>
