<svg width="50" height="50" viewBox="0 0 50 50" fill="none" xmlns="http://www.w3.org/2000/svg">
<circle cx="25" cy="25" r="25" fill="white"/>
<g clip-path="url(#clip0_214_737)">
<path d="M10.7358 26.8608H39.2593V29.3405H10.7358V26.8608Z" fill="#28A6C3"/>
<path d="M11.978 30.5828H14.4577V39.8828H11.978V30.5828Z" fill="#28A6C3"/>
<path d="M35.542 30.5828H38.0217V39.8828H35.542V30.5828Z" fill="#28A6C3"/>
<path d="M13.2156 23.139H26.8562C27.5406 23.139 28.0984 22.5859 28.0984 21.8968V13.2156C28.0984 12.5312 27.5453 11.9734 26.8562 11.9734H13.2156C12.5312 11.9734 11.9734 12.5265 11.9734 13.2156V21.8968C11.9781 22.5859 12.5312 23.139 13.2156 23.139Z" fill="#28A6C3"/>
<path d="M30.6765 16.3188H37.9281V17.561H30.6765V16.3188Z" fill="#28A6C3"/>
<path d="M30.6765 13.8391H37.9281V15.0813H30.6765V13.8391Z" fill="#28A6C3"/>
<path d="M30.6765 10.1172H37.9281V12.5969H30.6765V10.1172Z" fill="#28A6C3"/>
<path d="M37.9281 18.7983H30.6765V25.6187H37.9281V18.7983ZM34.3 22.5202C33.9578 22.5202 33.6812 22.2437 33.6812 21.9015C33.6812 21.5593 33.9578 21.2827 34.3 21.2827C34.6421 21.2827 34.9187 21.5593 34.9187 21.9015C34.9234 22.2437 34.6421 22.5202 34.3 22.5202Z" fill="#28A6C3"/>
<path d="M15.0764 25.6188H24.9999L23.7577 24.3813H16.3186L15.0764 25.6188Z" fill="#28A6C3"/>
</g>
<defs>
<clipPath id="clip0_214_737">
<rect width="30" height="30" fill="white" transform="translate(10 10)"/>
</clipPath>
</defs>
</svg>
