<svg width="50" height="50" viewBox="0 0 50 50" fill="none" xmlns="http://www.w3.org/2000/svg">
<circle cx="25" cy="25" r="25" fill="#28A6C3"/>
<path d="M25 17.5C26.5533 17.5 27.8125 16.2408 27.8125 14.6875C27.8125 13.1342 26.5533 11.875 25 11.875C23.4467 11.875 22.1875 13.1342 22.1875 14.6875C22.1875 16.2408 23.4467 17.5 25 17.5Z" fill="#F5F5F7"/>
<path d="M11.875 34.3752C11.875 34.7044 12.0476 35.0097 12.33 35.1791C12.33 35.1791 17.0268 38.1227 17.0312 38.1252V31.8347L11.875 28.8883V34.3752Z" fill="#F5F5F7"/>
<path d="M17.9823 25.1339C17.6848 24.9554 17.3149 24.9554 17.0173 25.1339C17.0173 25.1339 12.2703 27.9939 12.2402 28.0174L17.4998 31.023L22.7594 28.0174C22.7293 27.9939 17.9823 25.1339 17.9823 25.1339Z" fill="#F5F5F7"/>
<path d="M26.875 30.625H25.9375V24.0625H28.75C29.2682 24.0625 29.6875 23.6427 29.6875 23.125V20.3125C29.6875 18.7616 28.4259 17.5 26.875 17.5H25H23.125C21.5741 17.5 20.3125 18.7616 20.3125 20.3125V23.125C20.3125 23.6427 20.7323 24.0625 21.25 24.0625H24.0625V30.625H23.125V28.8883L17.9688 31.8347V38.1252C17.9732 38.1227 22.67 35.1791 22.67 35.1791C22.9524 35.0097 23.125 34.7044 23.125 34.3752V32.5H26.875V34.3755C26.875 34.7046 27.0476 35.0099 27.33 35.1793C27.33 35.1793 32.0268 38.1229 32.0312 38.1255V31.8349L26.875 28.8885V30.625Z" fill="#F5F5F7"/>
<path d="M32.9823 25.1341C32.6848 24.9556 32.3149 24.9556 32.0173 25.1341C32.0173 25.1341 27.2703 27.9941 27.2402 28.0177L32.4998 31.0233L37.7594 28.0177C37.7293 27.9941 32.9823 25.1341 32.9823 25.1341Z" fill="#F5F5F7"/>
<path d="M32.9688 31.8349V38.1255C32.9732 38.123 37.67 35.1793 37.67 35.1793C37.9524 35.0099 38.125 34.7046 38.125 34.3755V28.8885L32.9688 31.8349Z" fill="#F5F5F7"/>
</svg>
