<svg width="50" height="50" viewBox="0 0 50 50" fill="none" xmlns="http://www.w3.org/2000/svg">
<circle cx="25" cy="25" r="25" fill="white"/>
<path d="M13.5 16V29.5C13.5 29.7727 13.7273 30 14 30H36.5C36.7727 30 37 29.7727 37 29.5V16C37 15.7273 36.7727 15.5 36.5 15.5H14.0455C13.6818 15.5 13.5 15.7273 13.5 16ZM13.5 16V29.5C13.5 29.7727 13.7273 30 14 30H36.5C36.7727 30 37 29.7727 37 29.5V16C37 15.7273 36.7727 15.5 36.5 15.5H14.0455C13.6818 15.5 13.5 15.7273 13.5 16ZM13.5 16V29.5C13.5 29.7727 13.7273 30 14 30H36.5C36.7727 30 37 29.7727 37 29.5V16C37 15.7273 36.7727 15.5 36.5 15.5H14.0455C13.6818 15.5 13.5 15.7273 13.5 16ZM13.5 16V29.5C13.5 29.7727 13.7273 30 14 30H36.5C36.7727 30 37 29.7727 37 29.5V16C37 15.7273 36.7727 15.5 36.5 15.5H14.0455C13.6818 15.5 13.5 15.7273 13.5 16ZM37.4545 13.5H13.1364C12.2273 13.5 11.5 14.2727 11.5 15.1364V31.5C11.5 31.7727 11.7273 32 12 32H20.4091C20.4091 32 35.5 32.0455 38.5 32.0455C38.7727 32.0455 39 31.8182 39 31.5455V15C39 14.1818 38.3182 13.5 37.4545 13.5ZM37.5909 30.5C37.5909 30.7727 37.2727 31.1818 37 31.1818H13C12.7273 31.1818 12.6364 30.7727 12.6364 30.5V15C12.6364 14.7273 12.7727 14.7273 13 14.7273H37C37.2727 14.7273 37.5909 14.7273 37.5909 15V30.5ZM14 30H36.5C36.7727 30 37 29.7727 37 29.5V16C37 15.7273 36.7727 15.5 36.5 15.5H14C13.7273 15.5 13.5 15.7273 13.5 16V29.5C13.5 29.7727 13.6818 30 14 30ZM21.8636 33.7727L22.1364 34.2727C22.2273 34.4091 22.3636 34.5 22.5455 34.5H27.8182C28 34.5 28.1364 34.4091 28.2273 34.2727L28.5 33.7727C28.6818 33.4545 28.4545 33.0455 28.0909 33.0455H22.3182C21.9091 33 21.6818 33.4545 21.8636 33.7727ZM30.5 33C30.3636 33 30.1818 33.0909 30.0909 33.1818L28.7273 35.0909C28.6364 35.2273 28.5 35.4545 28.3636 35.4545H22.0909C21.9545 35.4545 21.8182 35.2273 21.7273 35.0909L20.3182 33.1818C20.2273 33.0455 20.0909 33 19.9091 33H10.5C10.2273 33 10 33.2273 10 33.5V34.3182C10 35.5455 11 36.5 12.1818 36.5H38.1818C39.1818 36.5 39.9545 35.6818 39.9545 34.7273V33.5C39.9545 33.2273 39.7273 33 39.4545 33H30.5ZM13.4545 35.7273H12.9545C12.6818 35.7273 12.4545 35.5 12.4545 35.2273C12.4545 34.9545 12.6818 34.7273 12.9545 34.7273H13.4545C13.7273 34.7273 13.9545 34.9545 13.9545 35.2273C14 35.5 13.7727 35.7273 13.4545 35.7273ZM15.6364 35.7273H15.1364C14.8636 35.7273 14.6364 35.5 14.6364 35.2273C14.6364 34.9545 14.8636 34.7273 15.1364 34.7273H15.6364C15.9091 34.7273 16.1364 34.9545 16.1364 35.2273C16.1364 35.5 15.9091 35.7273 15.6364 35.7273Z" fill="#28A6C3"/>
</svg>
