<svg width="50" height="50" viewBox="0 0 50 50" fill="none" xmlns="http://www.w3.org/2000/svg">
<circle cx="25" cy="25" r="25" fill="#DCF1F5"/>
<g clip-path="url(#clip0_214_677)">
<path d="M35.9714 36.25H33.5286C33.3747 36.25 33.25 36.1253 33.25 35.9714V24.5557C33.25 24.3869 33.3869 24.25 33.5557 24.25H35.4964C35.9126 24.25 36.25 24.5874 36.25 25.0036V35.9714C36.25 36.1253 36.1253 36.25 35.9714 36.25Z" fill="#28A6C3"/>
<path d="M16.4714 36.25H14.0286C13.8747 36.25 13.75 36.1253 13.75 35.9714V25.0036C13.75 24.5874 14.0874 24.25 14.5036 24.25H16.4443C16.6131 24.25 16.75 24.3869 16.75 24.5557V35.9714C16.75 36.1253 16.6253 36.25 16.4714 36.25Z" fill="#28A6C3"/>
<path d="M30.745 15.25H29.8375C29.635 15.25 29.44 15.1375 29.35 14.95L29.0425 14.3425C28.855 13.9825 28.4875 13.75 28.075 13.75H21.91C21.5125 13.75 21.145 13.975 20.965 14.335L20.65 14.95C20.56 15.1375 20.365 15.25 20.1625 15.25H19.255C18.7 15.25 18.25 15.7 18.25 16.255V35.9725C18.25 36.1225 18.3775 36.25 18.5275 36.25H22.4725C22.6225 36.25 22.75 36.1225 22.75 35.9725V33.3775C22.75 32.1775 23.635 31.09 24.835 31.0075C25.525 30.955 26.1475 31.2175 26.59 31.66C26.995 32.065 27.25 32.6275 27.25 33.25V35.9725C27.25 36.1225 27.3775 36.25 27.5275 36.25H31.4725C31.6225 36.25 31.75 36.1225 31.75 35.9725V16.255C31.75 15.7 31.3 15.25 30.745 15.25ZM23.5 28.405C23.5 28.6 23.35 28.75 23.155 28.75H21.595C21.4 28.75 21.25 28.6 21.25 28.405V26.845C21.25 26.65 21.4 26.5 21.595 26.5H23.155C23.35 26.5 23.5 26.65 23.5 26.845V28.405ZM23.5 23.905C23.5 24.1 23.35 24.25 23.155 24.25H21.595C21.4 24.25 21.25 24.1 21.25 23.905V22.345C21.25 22.15 21.4 22 21.595 22H23.155C23.35 22 23.5 22.15 23.5 22.345V23.905ZM23.5 19.405C23.5 19.6 23.35 19.75 23.155 19.75H21.595C21.4 19.75 21.25 19.6 21.25 19.405V17.845C21.25 17.65 21.4 17.5 21.595 17.5H23.155C23.35 17.5 23.5 17.65 23.5 17.845V19.405ZM28.75 28.405C28.75 28.6 28.6 28.75 28.405 28.75H26.845C26.65 28.75 26.5 28.6 26.5 28.405V26.845C26.5 26.65 26.65 26.5 26.845 26.5H28.405C28.6 26.5 28.75 26.65 28.75 26.845V28.405ZM28.75 23.905C28.75 24.1 28.6 24.25 28.405 24.25H26.845C26.65 24.25 26.5 24.1 26.5 23.905V22.345C26.5 22.15 26.65 22 26.845 22H28.405C28.6 22 28.75 22.15 28.75 22.345V23.905ZM28.75 19.405C28.75 19.6 28.6 19.75 28.405 19.75H26.845C26.65 19.75 26.5 19.6 26.5 19.405V17.845C26.5 17.65 26.65 17.5 26.845 17.5H28.405C28.6 17.5 28.75 17.65 28.75 17.845V19.405Z" fill="#28A6C3"/>
</g>
<defs>
<clipPath id="clip0_214_677">
<rect width="24" height="24" fill="white" transform="translate(13 13)"/>
</clipPath>
</defs>
</svg>
