<svg width="50" height="50" viewBox="0 0 50 50" fill="none" xmlns="http://www.w3.org/2000/svg">
<circle cx="25" cy="25" r="25" fill="white"/>
<path d="M29.9695 10H19.9877C18.2261 10.002 16.7986 11.4295 16.7969 13.191V36.8091C16.7986 38.5707 18.2261 39.9982 19.9877 39.9999H29.9695C31.731 39.9982 33.1585 38.5707 33.1605 36.8091V13.191C33.1585 11.4295 31.731 10.002 29.9695 10ZM24.9787 37.2728C24.2254 37.2728 23.6149 36.6623 23.6149 35.909C23.6149 35.1559 24.2254 34.5455 24.9787 34.5455C25.7318 34.5455 26.3422 35.1559 26.3422 35.909C26.3422 36.6623 25.7318 37.2728 24.9787 37.2728ZM27.0241 14.0909H22.9332C22.5567 14.0909 22.2513 13.7855 22.2513 13.409C22.2513 13.0325 22.5567 12.7274 22.9332 12.7274H27.0241C27.4007 12.7274 27.7058 13.0325 27.7058 13.409C27.7058 13.7855 27.4007 14.0909 27.0241 14.0909Z" fill="#28A6C3"/>
</svg>
