<svg width="50" height="50" viewBox="0 0 50 50" fill="none" xmlns="http://www.w3.org/2000/svg">
<circle cx="25" cy="25" r="25" fill="#28A6C3"/>
<path d="M32.8548 30.5624H29.5722V28.9044C28.1821 29.5539 26.6328 29.9176 24.9999 29.9176C23.367 29.9176 21.8177 29.5539 20.4276 28.9044V30.5624H17.145C16.7875 30.5624 16.4656 30.7788 16.3307 31.1098C16.1958 31.4408 16.2747 31.8205 16.5303 32.0704L24.3852 39.7495C24.556 39.9166 24.778 40 24.9998 40C25.2217 40 25.4436 39.9165 25.6144 39.7495L33.4694 32.0704C33.725 31.8205 33.8039 31.4409 33.669 31.1098C33.5341 30.7788 33.2122 30.5624 32.8548 30.5624Z" fill="#F5F5F7"/>
<path d="M24.9999 28.159C30.0064 28.159 34.0795 24.086 34.0795 19.0795C34.0795 14.073 30.0064 10 24.9999 10C19.9935 10 15.9204 14.073 15.9204 19.0795C15.9204 24.086 19.9934 28.159 24.9999 28.159ZM23.0465 15.2031C23.338 14.9801 23.6859 14.8178 24.066 14.7216V14.1044C24.066 13.6188 24.4596 13.2251 24.9452 13.2251C25.4308 13.2251 25.8245 13.6188 25.8245 14.1044V14.7466C26.9101 15.0472 27.8381 15.8743 27.8381 17.1621C27.8381 17.6477 27.4444 18.0414 26.9588 18.0414C26.4732 18.0414 26.0795 17.6477 26.0795 17.1621C26.0795 16.5946 25.3551 16.3798 24.8985 16.3778C24.5883 16.3745 23.8631 16.4515 23.8566 17.1773C23.8532 17.5496 24.0042 17.7691 24.9145 18.1055C25.0198 18.1444 25.1259 18.1821 25.2324 18.2196C25.807 18.4221 26.3899 18.6194 26.8882 18.9776C27.5469 19.4511 27.9092 20.1571 27.9019 20.9707C27.8947 21.7713 27.5578 22.4668 26.9533 22.9293C26.662 23.1521 26.3138 23.315 25.9339 23.4114V24.0547C25.9339 24.5403 25.5402 24.934 25.0546 24.934C24.569 24.934 24.1753 24.5403 24.1753 24.0547V23.3858C23.0897 23.0852 22.1617 22.2581 22.1617 20.9703C22.1617 20.4847 22.5554 20.091 23.041 20.091C23.5266 20.091 23.9203 20.4847 23.9203 20.9703C23.9203 21.5378 24.6446 21.7525 25.1013 21.7545C25.104 21.7546 25.1069 21.7546 25.1097 21.7546C25.1617 21.7546 25.2138 21.7525 25.2657 21.7481C25.5549 21.7236 25.8723 21.6263 26.0344 21.3665C26.272 20.9857 26.1129 20.5399 25.7477 20.3239C25.3527 20.0903 24.8989 19.9665 24.4694 19.8146C23.6944 19.5409 22.0819 18.9713 22.0981 17.1616C22.1052 16.361 22.442 15.6655 23.0465 15.2031Z" fill="#F5F5F7"/>
</svg>
