<svg width="50" height="50" viewBox="0 0 50 50" fill="none" xmlns="http://www.w3.org/2000/svg">
<circle cx="25" cy="25" r="25" fill="white"/>
<path d="M32.7673 33.8072C32.7673 34.4131 32.2753 34.9056 31.6711 34.9056H15.8276C15.2251 34.9056 14.7353 34.4131 14.7353 33.8072L14.7331 13.9285C14.7331 13.3227 15.2229 12.8301 15.8254 12.8301H31.6689C32.2748 12.8301 32.7673 13.3227 32.7673 13.9285V20.329L34.1829 18.9134V13.9268C34.1829 12.5396 33.0584 11.415 31.6711 11.415H15.8289C14.4417 11.415 13.3171 12.5396 13.3171 13.9268V36.0731C13.3171 37.4602 14.4417 38.5849 15.8289 38.5849H31.6711C33.0584 38.5849 34.1829 37.4602 34.1829 36.0731V25.0335L32.7673 26.4492V33.8072ZM25.4834 36.9813H22.0164C21.86 36.9813 21.7334 36.8547 21.7334 36.6982C21.7334 36.5418 21.86 36.4152 22.0164 36.4152H25.4834C25.6399 36.4152 25.7664 36.5418 25.7664 36.6982C25.7664 36.8547 25.6399 36.9813 25.4834 36.9813Z" fill="#28A6C3"/>
<path d="M26.9935 26.3023C27.0421 26.1227 27.1361 25.9602 27.2655 25.8308L32.2012 20.8951V13.9286C32.2012 13.64 31.9574 13.3962 31.6688 13.3962H15.8253C15.5351 13.3962 15.2991 13.635 15.2991 13.9286L15.3013 33.8073C15.3013 34.1008 15.5373 34.3396 15.8275 34.3396H31.671C31.9635 34.3396 32.2012 34.1008 32.2012 33.8073V27.0153L30.3256 28.891C30.1929 29.0225 30.0299 29.1159 29.853 29.1624L27.7044 29.7334C27.6154 29.7566 27.5242 29.7688 27.4335 29.7688C27.1118 29.7688 26.8017 29.6151 26.6044 29.3581C26.4048 29.0988 26.339 28.7683 26.423 28.4515L26.9935 26.3023Z" fill="#28A6C3"/>
<path d="M40.4433 15.7179C40.124 15.3986 39.6029 15.3939 39.2836 15.7132L38.8646 16.1322L38.7988 16.0665C38.5314 15.7991 38.0979 15.7991 37.8304 16.0665L27.666 26.2309C27.606 26.291 27.5629 26.3658 27.5411 26.4478L26.9705 28.5971C26.8756 28.9544 27.2021 29.2809 27.5594 29.186L29.7087 28.6154C29.7907 28.5936 29.8655 28.5505 29.9256 28.4905L40.09 18.3261C40.3574 18.0587 40.3574 17.6251 40.09 17.3577L40.0243 17.2919L40.4433 16.8729C40.7626 16.5536 40.7626 16.0371 40.4433 15.7179ZM35.4212 21.135L31.5186 25.0381C31.4634 25.0934 31.391 25.121 31.3185 25.121C31.2461 25.121 31.1737 25.0934 31.1184 25.0381C31.0079 24.9276 31.0079 24.7485 31.1184 24.6379L35.021 20.7348C35.1316 20.6243 35.3107 20.6243 35.4212 20.7348C35.5318 20.8454 35.5318 21.0245 35.4212 21.135Z" fill="#28A6C3"/>
</svg>
