<svg width="50" height="50" viewBox="0 0 50 50" fill="none" xmlns="http://www.w3.org/2000/svg">
<circle cx="25" cy="25" r="25" fill="white"/>
<path d="M34.7086 29.6327C33.8792 28.4429 33.4647 27.1024 33.4647 25.6124C33.4647 24.2543 33.8559 23.01 34.6365 21.8803C35.0571 21.2674 35.7424 20.5584 36.6919 19.753C36.067 18.984 35.4421 18.383 34.8167 17.9502C33.6869 17.1691 32.4068 16.7786 30.9766 16.7786C30.1235 16.7786 29.0836 16.9828 27.8579 17.3917C26.68 17.8003 25.8205 18.0049 25.2799 18.0049C24.871 18.0049 24.0419 17.8247 22.7919 17.464C21.5299 17.1033 20.4661 16.9232 19.6008 16.9232C17.5335 16.9232 15.8268 17.7887 14.4807 19.5192C13.1226 21.2741 12.4434 23.5216 12.4434 26.262C12.4434 29.1706 13.327 32.1932 15.0937 35.3302C16.8844 38.4431 18.6933 39.9998 20.5202 39.9998C21.1332 39.9998 21.9265 39.7954 22.8999 39.3868C23.8736 38.9905 24.7269 38.7919 25.4601 38.7919C26.2411 38.7919 27.1487 38.9842 28.1823 39.3686C29.2759 39.7529 30.1175 39.9452 30.7063 39.9452C32.2447 39.9452 33.7894 38.7673 35.3396 36.4116C36.349 34.9093 37.0882 33.407 37.557 31.9045C36.4873 31.5797 35.5379 30.8225 34.7086 29.6327Z" fill="#28A6C3"/>
<path d="M28.5785 15.697C29.3358 14.9398 29.8947 14.1104 30.2554 13.2091C30.6037 12.3077 30.7777 11.4903 30.7777 10.757C30.7777 10.7091 30.7751 10.6489 30.7686 10.5767C30.7631 10.5046 30.7599 10.4447 30.7599 10.3966C30.7478 10.3604 30.7329 10.2943 30.7149 10.1983C30.697 10.1022 30.682 10.0361 30.6697 10C28.5544 10.493 27.0521 11.3824 26.1626 12.6685C25.2615 13.9666 24.7925 15.5109 24.7563 17.3017C25.5617 17.2295 26.1864 17.1276 26.6313 16.9953C27.2808 16.7789 27.9291 16.346 28.5785 15.697Z" fill="#28A6C3"/>
</svg>
