<svg width="50" height="50" viewBox="0 0 50 50" fill="none" xmlns="http://www.w3.org/2000/svg">
<circle cx="25" cy="25" r="25" fill="white"/>
<path d="M24.2696 36.0939C24.4326 36.3377 24.7063 36.4844 25 36.4844C25.2937 36.4844 25.5674 36.3377 25.7304 36.0939C27.132 33.9962 28.314 32.1942 29.3096 30.7266C33.8499 24.0293 34.668 22.8224 34.668 19.7266C34.668 14.3957 30.3309 10 25 10C19.6691 10 15.332 14.3957 15.332 19.7266C15.332 22.8174 16.0487 23.9343 20.7128 30.817C21.7032 32.2787 22.8773 34.0115 24.2696 36.0939ZM19.1198 18.1164C19.2063 17.8314 19.4313 17.6101 19.7172 17.5268L22.583 16.6985L24.157 14.1656C24.3143 13.9132 24.5889 13.7571 24.8867 13.7511C25.1845 13.7399 25.4635 13.8901 25.6317 14.1373L27.3046 16.6067L30.2004 17.3217C30.4897 17.3929 30.7232 17.6057 30.8202 17.8873C30.918 18.1679 30.8665 18.4794 30.6838 18.7147L28.8521 21.069L29.0659 24.044C29.0871 24.3408 28.9567 24.6283 28.7198 24.8087C28.4829 24.9881 28.1705 25.0352 27.8908 24.9339L25.0858 23.9194L22.323 25.043C22.0378 25.157 21.7272 25.1158 21.4887 24.9494C21.245 24.7796 21.1033 24.4971 21.1136 24.1994L21.2115 21.2184L19.2889 18.9378C19.0974 18.7103 19.0331 18.4013 19.1198 18.1164Z" fill="#28A6C3"/>
<path d="M22.9787 20.9394L22.9141 22.9048L24.7365 22.1632C24.9399 22.0827 25.1638 22.0783 25.3663 22.1513L27.2153 22.8199L27.0745 20.8586C27.0582 20.6414 27.1235 20.4269 27.2574 20.2553L28.465 18.7034L26.5561 18.2322C26.3448 18.1807 26.1603 18.052 26.0386 17.8717L24.9356 16.2437L23.8978 17.9138C23.7829 18.0983 23.6035 18.2331 23.395 18.294L21.5049 18.8399L22.7727 20.3436C22.9125 20.5102 22.9864 20.7222 22.9787 20.9394Z" fill="#28A6C3"/>
<path d="M29.7596 33.2539C28.9979 34.38 28.1483 35.6393 27.1929 37.0705C26.7029 37.8043 25.8833 38.2422 25 38.2422C24.1167 38.2422 23.2971 37.8043 22.8071 37.0705C21.8526 35.6405 21.0014 34.3793 20.2399 33.2541C17.2345 33.6208 13.5742 34.4766 13.5742 36.4843C13.5742 39.2593 20.7565 40 25 40C29.2435 40 36.4258 39.2593 36.4258 36.4843C36.4258 34.4761 32.7653 33.6208 29.7596 33.2539Z" fill="#28A6C3"/>
</svg>
