<svg width="18" height="18" viewBox="0 0 18 18" fill="none" xmlns="http://www.w3.org/2000/svg">
<g clip-path="url(#clip0_214_789)">
<path d="M17.1429 8.14286H9.85715V0.857145C9.85715 0.384012 9.47401 0 9 0C8.52599 0 8.14286 0.384012 8.14286 0.857145V8.14286H0.857145C0.383133 8.14286 0 8.52687 0 9C0 9.47313 0.383133 9.85715 0.857145 9.85715H8.14286V17.1429C8.14286 17.616 8.52599 18 9 18C9.47401 18 9.85715 17.616 9.85715 17.1429V9.85715H17.1429C17.6169 9.85715 18 9.47313 18 9C18 8.52687 17.6169 8.14286 17.1429 8.14286Z" fill="#28A6C3" stroke="#28A6C3" stroke-width="2" stroke-miterlimit="1.42723"/>
</g>
<defs>
<clipPath id="clip0_214_789">
<rect width="18" height="18" fill="white"/>
</clipPath>
</defs>
</svg>
